<svg width="126" height="130" viewBox="0 0 126 130" fill="none" xmlns="http://www.w3.org/2000/svg">
<path d="M125.835 8.79313C116.378 -4.21931 110.507 14.8142 104.902 21.349C96.9851 33.3056 86.1464 43.0364 75.8124 52.9384C67.4177 54.3652 77.4595 7.13804 66.0895 0.945712C48.1578 -7.15853 57.801 39.2126 56.8181 49.029C59.023 62.869 35.4064 36.0736 32.0325 33.2771C26.0287 24.4309 21.3001 13.9296 13.6492 6.68146C7.88453 -0.281339 -3.69801 5.91099 1.16347 15.3279C10.727 30.9371 19.9984 46.261 33.8124 57.9322C35.858 60.1866 46.8029 65.1804 43.0306 68.6047C33.653 76.5948 23.6644 83.8715 16.7574 94.544C9.95664 101.45 -7.73596 134.409 14.2602 125.192C27.1179 109.468 36.8675 91.776 54.4804 81.4745C61.5202 77.3938 50.8409 135.836 67.4709 128.502C76.5297 117.515 72.5449 96.1134 72.5449 81.931C75.8124 64.7809 109.205 125.249 114.412 129.044C134.23 132.64 117.919 101.878 110.693 95.2003C107.718 88.5799 85.7213 66.3218 90.1843 63.0116C101.687 46.2895 128.332 32.05 125.809 8.79313H125.835Z" fill="black"/>
</svg>
