<svg width="24" height="41" viewBox="0 0 24 41" fill="none" xmlns="http://www.w3.org/2000/svg">
<path d="M23.6974 29.3143C21.5016 24.8646 24.5758 -3.99967 16.7603 0.468276C15.2546 3.29828 16.3211 5.5914 12.2073 6.28298C2.06153 9.04019 -5.90628 23.5269 5.84378 29.7511C9.37507 32.7358 13.8295 30.6065 17.8269 31.3799C19.718 32.9906 18.6604 37.0672 19.7001 39.2785C24.6564 45.7484 24.2172 32.0988 23.6974 29.3052V29.3143ZM17.1905 25.3377C13.713 27.4034 4.92062 25.7836 5.00129 20.7242C5.20743 15.3645 11.2752 12.7074 15.3352 10.5598C18.4274 10.1958 17.2443 18.9953 17.4415 21.1792C17.5132 22.8262 18.4363 24.264 17.1905 25.3468V25.3377Z" fill="black"/>
</svg>
