<svg width="25" height="40" viewBox="0 0 25 40" fill="none" xmlns="http://www.w3.org/2000/svg">
<path d="M25 37.4705C23.5106 30.6821 20.0913 24.7672 17.377 18.5612C15.4558 13.6291 14.0546 8.31478 11.305 3.99237C10.1769 -0.0661365 4.32528 -2.33199 5.55025 3.68298C6.01732 6.08533 8.10595 7.97809 8.06188 10.3804C4.13139 14.6027 -0.988815 16.4136 0.165656 23.8936C0.14803 31.7923 7.84156 36.0328 14.8036 34.0945C16.8482 33.4666 18.4169 33.0935 19.3246 35.2775C20.0032 38.2622 24.1452 42.9486 25 37.4705ZM15.3412 28.3707C12.3889 30.6093 5.43568 28.7529 5.22418 24.3031C4.59847 21.0363 7.59481 15.4035 11.1199 16.4591C12.5035 18.3701 12.3096 21.4913 13.8959 23.3477C14.6891 24.6944 16.0903 26.8511 15.3412 28.3707Z" fill="black"/>
</svg>
