<svg width="22" height="39" viewBox="0 0 22 39" fill="none" xmlns="http://www.w3.org/2000/svg">
<path d="M0.509204 23.4625C0.322579 27.6213 11.0224 29.9328 5.85022 32.6102C4.04619 33.6543 1.74448 34.5111 1.09574 36.0104C0.180389 38.3933 2.8198 39.5981 4.83712 38.7056C23.6684 32.8333 29.6404 10.7718 9.21835 2.03461C-0.388376 -2.82035 -2.70785 1.99891 7.03218 6.22915C10.3648 8.23718 -2.69008 12.6638 0.509204 23.4625ZM5.27257 18.8128C5.87688 15.7249 10.3914 9.66511 13.9106 11.6017C17.6342 14.761 18.7184 22.0792 14.2572 24.8636C10.0093 26.3451 4.00175 24.114 5.27257 18.8128Z" fill="black"/>
</svg>
