<svg width="23" height="30" viewBox="0 0 23 30" fill="none" xmlns="http://www.w3.org/2000/svg">
<path d="M0.712656 30V0.76H12.3527C18.1127 0.76 21.6327 3.76 21.6327 8.64C21.6327 11.88 20.1927 14.2 17.4327 15.36C20.5127 16.36 22.0727 18.68 22.0727 22.08C22.0727 27.08 18.5927 30 12.5527 30H0.712656ZM11.9127 5.28H5.83266V13.24H12.0327C14.8327 13.24 16.3927 11.76 16.3927 9.16C16.3927 6.64 14.7927 5.28 11.9127 5.28ZM12.3527 17.56H5.83266V25.48H12.3527C15.2327 25.48 16.8327 24.08 16.8327 21.44C16.8327 18.96 15.1927 17.56 12.3527 17.56Z" fill="black"/>
</svg>
