<svg width="27" height="41" viewBox="0 0 27 41" fill="none" xmlns="http://www.w3.org/2000/svg">
<path d="M25.9619 2.84749C24.7301 0.141192 21.7991 0.0962371 19.2276 0.21312C13.0418 0.608724 -1.29884 -2.664 0.0947624 7.26207C0.292565 15.7046 0.0767804 23.9314 0.670187 32.347C-0.00413869 39.4679 6.37049 40.7086 13.5903 39.9983C31.851 37.9304 27.5623 13.5288 9.75111 14.4369C4.12273 15.8305 5.91194 10.31 5.7591 7.01032C7.23362 4.09724 11.9629 6.00333 14.7231 5.25707C16.6382 5.89544 20.3785 4.28605 20.9719 6.68665C21.6822 17.8984 28.5063 8.75458 25.9619 2.83849V2.84749ZM7.44042 19.7236C15.874 16.8555 26.3845 28.9304 16.0268 33.6956C12.3225 35.4129 6.77508 37.0133 5.91194 33.9923C5.48038 32.1941 6.26259 30.342 6.19067 28.5258C6.38847 25.8645 3.78108 20.6677 7.43143 19.7326L7.44042 19.7236Z" fill="black"/>
</svg>
