<svg width="27" height="42" viewBox="0 0 27 42" fill="none" xmlns="http://www.w3.org/2000/svg">
<path d="M25.993 8.45099C26.4785 0.61083 22.4685 -1.11544 15.3207 0.61083C9.72827 1.10534 1.11488 -0.674884 0 6.93151C0.458541 17.0734 0.134865 27.2152 1.17782 37.3661C1.58242 46.3301 13.5854 38.1842 17.6224 36.5479C31.4326 30.6947 23.3676 22.5849 11.8412 19.3391C5.57442 18.7097 5.7003 15.8236 5.71828 10.483C5.44855 8.69375 4.86413 6.59884 7.0939 6.37407C10.3127 5.87057 13.5854 6.24819 16.7862 5.70873C19.5015 5.33111 20.5085 5.54689 20.6344 8.42402C20.7243 11.5799 26.0469 11.6967 26.002 8.45998L25.993 8.45099ZM7.66933 23.475C10.6903 24.0953 13.0819 25.9025 16.1029 26.6758C17.7752 27.0174 21.6054 28.5639 18.5484 30.0923C16.2108 31.1353 14.4306 31.8816 12.0839 33.428C11.2298 33.8326 6.47353 37.1143 6.28471 35.4959C6.32068 32.6548 6.1948 29.6967 5.82617 26.8556C5.68232 25.1113 4.88212 22.6568 7.66034 23.466L7.66933 23.475Z" fill="black"/>
</svg>
