<svg width="29" height="41" viewBox="0 0 29 41" fill="none" xmlns="http://www.w3.org/2000/svg">
<path d="M27.8725 1.76963C25.1842 -1.04456 14.7726 -0.037564 11.4369 1.58981C8.51486 2.96543 8.82954 5.85155 8.94642 8.65674C8.47889 10.8955 11.1312 14.4649 8.51486 15.5798C6.51885 16.2541 3.8755 15.9484 2.18519 17.36C-1.86077 22.2871 0.935437 30.7207 1.01636 36.6637C1.68169 42.5888 18.1622 39.0553 22.2891 38.0933C27.1442 35.5758 24.6717 21.8915 22.8825 17.6208C20.4279 15.3191 14.7906 17.36 14.9165 12.4689C15.1952 10.437 12.8575 5.9954 15.6627 5.62677C18.5938 4.7007 30.0843 7.17322 27.8725 1.76064V1.76963ZM16.5798 20.8396C19.8615 20.7227 19.0074 24.382 19.358 26.5668C22.2891 38.4439 17.8116 33.2921 6.73464 34.7217C5.39498 34.1193 5.98838 32.0424 5.82655 30.8286C5.25112 17.378 4.0733 21.5139 16.5798 20.8396Z" fill="black"/>
</svg>
