<svg width="35" height="41" viewBox="0 0 35 41" fill="none" xmlns="http://www.w3.org/2000/svg">
<path d="M34.7824 31.5533C34.2915 29.1796 31.4797 28.4333 29.8105 27.4173C27.6235 22.4721 32.7651 -2.24475 25.0617 0.164903C23.089 1.36074 23.8745 4.50767 23.9638 6.38683C23.9459 11.8985 23.8299 17.2213 23.9816 22.7599C25.2759 31.7781 23.4728 28.5772 14.2341 29.2515C11.5205 28.5772 8.34274 29.1257 5.82553 28.4783C5.40599 27.8219 5.647 26.698 5.61129 25.9068C4.30805 18.507 6.47714 11.0803 5.14713 3.73442C5.63807 0.506569 0.817874 -1.60637 0.157328 2.27784C0.130549 12.3031 -0.360397 22.2294 0.541158 32.2726C1.45164 35.7252 6.6646 33.7112 9.20859 34.3496C13.5914 34.2506 17.9385 34.889 22.3749 34.4035C23.6692 34.943 30.8191 32.5693 29.6855 34.1607C29.4356 36.0579 27.088 36.8761 26.9005 38.7283C30.7477 45.2289 36.1571 36.1388 34.7914 31.5533H34.7824Z" fill="black"/>
</svg>
