<svg width="48" height="41" viewBox="0 0 48 41" fill="none" xmlns="http://www.w3.org/2000/svg">
<path d="M47.5011 21.9489C46.2874 15.79 34.7609 21.6342 33.0256 16.7611C32.0006 12.6702 31.5691 8.24658 29.5911 4.48834C24.3493 -8.41376 18.8288 10.0897 17.2464 15.1786C15.2864 22.4254 5.36029 16.6712 1.08956 21.5623C-3.01034 24.817 5.63002 35.6512 7.73392 39.2656C16.0686 44.2556 15.1875 27.3884 19.7819 24.6012C22.2454 24.5473 26.2824 24.6372 28.9077 24.5203C32.2704 27.3615 32.5941 45.1547 39.7779 38.6182C41.9177 36.0108 42.4392 32.8909 44.4712 30.1667C46.1795 27.7481 47.8788 24.9968 47.5011 21.9579V21.9489ZM8.26439 30.3465C5.9537 25.788 5.17148 23.855 11.2404 23.9449C14.7289 23.9808 12.697 27.0018 11.8428 28.7371C10.5121 31.3265 10.665 35.1117 8.26439 30.3465ZM24.4482 20.0338C18.3613 20.3485 24.7269 12.7331 24.7179 9.47835C25.1765 8.28254 25.5181 8.60622 25.653 9.55028C25.8148 12.9309 31.2094 20.4024 24.4392 20.0338H24.4482ZM41.7469 23.873C40.8208 26.6602 38.4922 28.782 37.2244 31.4164C36.3523 32.1896 36.3253 29.5822 35.9747 28.6652C34.5361 25.5812 34.5811 23.5942 38.8518 23.6212C39.7239 23.6392 41.2973 23.3695 41.7469 23.873Z" fill="black"/>
</svg>
