<svg width="38" height="41" viewBox="0 0 38 41" fill="none" xmlns="http://www.w3.org/2000/svg">
<path d="M37.2536 33.9891C36.5613 31.4986 33.4414 30.2848 32.2456 28.4776C31.1577 22.2828 30.6542 15.9172 30.5374 9.59652C29.9799 5.09202 30.3845 -0.671211 24.1627 0.164952C20.2516 0.137979 15.4055 -1.07581 13.5354 3.50961C9.894 10.1 9.37252 18.12 7.65524 25.3757C7.43047 27.3448 8.15874 29.9342 5.64126 30.5366C2.41348 31.2918 -0.724377 35.4726 0.14775 38.6465C1.60429 41.4786 4.48142 38.9522 5.43446 37.0371C7.72717 35.2029 11.3955 36.3178 14.1827 35.5715C18.7951 35.9132 22.94 35.3647 27.6153 35.14C31.1937 34.6365 32.9649 35.2029 33.891 38.8712C36.6692 43.4926 39.0069 36.8303 37.2716 33.9891H37.2536ZM25.9969 29.6195C22.9759 30.5995 18.4984 30.5725 15.3066 30.4197C10.6403 30.1859 13.7242 24.3687 13.5803 21.5186C15.7831 16.8972 14.6862 9.28183 18.3635 5.76635C20.2606 5.53258 23.4255 4.86725 24.5763 6.82729C25.8171 11.0531 25.1068 15.7014 25.925 19.9811C25.6552 22.8762 28.2536 27.5606 26.0059 29.6195H25.9969Z" fill="black"/>
</svg>
