<svg width="23" height="40" viewBox="0 0 23 40" fill="none" xmlns="http://www.w3.org/2000/svg">
<path d="M21.7426 15.6532C21.9314 11.4634 11.1062 9.13472 16.339 6.43741C18.1642 5.38547 20.4928 4.52233 21.1492 3.01184C22.0753 0.611241 19.4049 -0.602545 17.364 0.296556C-1.68798 6.21264 -7.72993 28.4384 12.9314 37.2406C22.6507 42.1317 24.9973 37.2766 15.1432 33.0148C11.7716 30.9919 24.9794 26.5323 21.7426 15.6532ZM16.9234 20.3375C16.312 23.4484 11.7446 29.5533 8.18415 27.6022C4.41692 24.4194 3.32001 17.0468 7.8335 14.2416C12.1312 12.7491 18.2091 14.9969 16.9234 20.3375Z" fill="black"/>
</svg>
