<svg width="25" height="42" viewBox="0 0 25 42" fill="none" xmlns="http://www.w3.org/2000/svg">
<path d="M23.9915 19.6453C20.8267 16.6063 4.45407 21.0299 6.77375 14.4934C11.4311 1.16874 20.3232 8.10081 24.3062 3.15575C22.553 -1.27681 14.1374 -0.350738 10.4421 1.75316C3.74378 5.02588 1.8287 10.0519 0.947578 16.867C-2.61286 30.7761 3.97755 40.855 18.7408 41.1248C21.573 41.3675 25.6009 39.8481 23.4701 37.2407C18.1114 35.4065 9.95657 36.0179 7.18734 30.7492C2.50302 21.7312 8.55397 22.909 15.2882 23.7452C18.1024 23.6732 27.5969 24.7791 23.9825 19.6363L23.9915 19.6453Z" fill="black"/>
</svg>
