<svg width="22" height="42" viewBox="0 0 22 42" fill="none" xmlns="http://www.w3.org/2000/svg">
<path d="M21.1656 36.8002C18.2255 35.3526 13.6401 36.2877 10.4483 34.984C5.13463 33.8781 5.15261 27.5754 9.50426 25.4715C11.788 23.8891 14.6921 23.8531 17.2725 23.1339C18.765 22.7113 19.718 21.1918 18.6661 19.96C16.8949 18.009 13.73 18.7912 11.4014 18.0719C7.78698 17.4156 4.21755 14.6104 6.08768 10.6723C6.92384 6.62637 28.5652 3.43456 16.6971 0C8.45231 0.287712 -4.0272 7.48052 1.2685 17.029C2.47329 19.3397 4.55921 21.3267 2.77 23.952C-8.15408 42.0779 26.1736 44.982 21.1656 36.8002Z" fill="black"/>
</svg>
