<svg width="29" height="42" viewBox="0 0 29 42" fill="none" xmlns="http://www.w3.org/2000/svg">
<path d="M28.7016 28.4178C26.2535 20.6995 20.313 14.5681 17.3518 7.24647C16.8928 5.11852 18.6209 2.50366 16.8478 0.727364C11.0784 -2.36538 11.9335 5.18164 12.0595 8.80637C8.98127 15.4697 2.84284 20.979 0.0706504 27.8137C-0.883415 35.3066 8.0632 32.836 12.5455 33.2237C13.6706 35.532 12.9145 38.4354 14.1296 40.8519C15.0027 42.7634 18.6659 42.1503 18.954 40.1396C19.503 38.0567 17.1718 35.0902 19.386 33.5663C22.6082 32.1597 30.6548 34.6934 28.7016 28.4178ZM5.89405 27.7325C5.86705 27.6514 5.39902 27.6784 5.66904 27.6243C5.79505 27.5973 6.06506 27.5973 5.89405 27.7325ZM22.7252 27.5251C18.4769 28.7063 14.0846 28.2735 9.71932 27.985C1.47475 28.5621 12.8425 19.2658 13.6436 16.0558C15.9027 11.4934 18.2339 20.4109 19.593 22.061C20.223 22.9446 23.4813 26.7767 22.7252 27.5251Z" fill="black"/>
</svg>
