<svg width="32" height="43" viewBox="0 0 32 43" fill="none" xmlns="http://www.w3.org/2000/svg">
<path d="M31.9974 22.7669C31.8874 6.41559 18.0186 9.40658 18.0828 3.21739C17.9728 1.54171 16.7812 -0.377209 14.8287 0.0642328C12.5554 0.577746 13.4354 3.2354 12.5921 4.76694C7.77056 8.17234 1.14323 10.6228 0.721575 17.5327C-1.96419 25.3255 3.16901 33.6408 10.7955 36.2804C14.9845 37.5327 14.3521 38.5687 15.5895 42.0552C18.3028 44.6768 19.7144 41.1904 19.7052 38.7669C24.5635 34.3345 32.0891 30.5958 31.9974 22.7669ZM12.3904 31.5958C-2.24835 25.6498 10.548 5.66784 13.4996 12.3255C14.1779 18.2084 13.7746 23.9561 14.2329 29.9111C14.3612 31.2084 14.0587 32.3435 12.3904 31.5958ZM26.3417 23.5777C18.5503 43.3435 18.3669 20.1453 18.9536 12.3525C21.3735 7.67685 27.9642 20.83 26.3417 23.5777Z" fill="black"/>
</svg>
