<svg width="28" height="31" viewBox="0 0 28 31" fill="none" xmlns="http://www.w3.org/2000/svg">
<path d="M14.8955 5.08C9.09547 5.08 5.77547 9.28 5.77547 15.6C5.77547 22.12 9.53547 25.68 14.9355 25.68C20.0155 25.68 23.0955 22.88 23.0955 18.2V18.08H14.2555V13.56H27.8555V30H23.5355L23.2155 26.64C21.6155 28.88 18.2955 30.44 14.3355 30.44C6.13547 30.44 0.415469 24.48 0.415469 15.48C0.415469 6.6 6.21547 0.279999 15.0155 0.279999C21.6955 0.279999 26.8555 4.16 27.6955 10.12H22.2955C21.3755 6.68 18.4155 5.08 14.8955 5.08Z" fill="black"/>
</svg>
