<svg width="26" height="41" viewBox="0 0 26 41" fill="none" xmlns="http://www.w3.org/2000/svg">
<path d="M25.103 5.57442C24.8512 -0.611389 18.5306 0.053946 14.0171 0C9.59349 0.332667 3.94714 -0.323676 0.782307 3.31768C-0.422488 5.06194 0.0810084 7.77722 0.242847 9.69231C0.377712 15.959 0.116972 22.2258 0.566523 28.4925C1.45663 32.3137 -0.512398 37.969 2.66143 40.8461C8.86522 42.2667 4.97212 24.6893 5.51158 20.958C5.76332 17.0739 5.93415 13.1538 5.60149 9.28771C4.51357 3.54246 15.3477 5.97003 18.8363 5.36763C20.6255 6.85115 19.7264 11.041 20.9312 13.1449C25.1749 18.1079 25.7324 8.43357 25.103 5.58342V5.57442Z" fill="black"/>
</svg>
