<svg width="40" height="41" viewBox="0 0 40 41" fill="none" xmlns="http://www.w3.org/2000/svg">
<path d="M39.6503 8.93579C38.6254 3.73899 34.8581 -0.244025 29.1578 0.628103C23.8711 0.906824 16.8222 -2.21306 13.2348 3.31641C10.5554 7.24548 9.17083 11.9298 7.76823 16.3534C5.38561 23.753 0.422577 30.6491 0 38.5252C3.73127 45.0976 6.47353 33.1935 7.82218 30.5682C8.99101 26.1716 11.6074 22.4043 12.6953 18.0167C15.0959 14.2765 14.5385 6.89483 19.1868 5.39334C23.5744 5.84289 28.3037 5.51022 32.5205 6.61611C33.4376 7.37136 33.5814 8.71102 34.4266 9.54718C35.5684 11.8309 38.994 11.6331 39.6503 8.93579Z" fill="black"/>
</svg>
