<svg width="35" height="40" viewBox="0 0 35 40" fill="none" xmlns="http://www.w3.org/2000/svg">
<path d="M34.8229 37.0469C33.4922 20.6023 19.0167 25.97 19.9607 19.8381C19.2864 13.958 20.3024 7.8531 19.0886 2.10785C18.8279 -0.202844 15.3753 -0.868178 14.4402 1.40655C13.8199 3.15979 14.3054 5.0569 14.2334 6.8551C14.4043 11.0989 14.1795 15.1628 14.7639 19.4515C15.1685 21.7802 14.4942 22.931 12.1835 23.6413C6.03365 25.5744 -0.916398 31.1758 0.0995857 37.7032C0.360325 39.4025 2.03265 40.7152 3.4892 39.4025C6.95073 31.3826 13.2624 26.6083 22.4243 28.5954C24.8069 29.4315 27.2704 31.0949 28.673 33.1358C30.1565 35.0509 29.9857 38.4765 32.1525 39.7892C33.8608 40.6343 34.9218 38.8271 34.8229 37.0469Z" fill="black"/>
</svg>
