<svg width="37" height="41" viewBox="0 0 37 41" fill="none" xmlns="http://www.w3.org/2000/svg">
<path d="M36.6154 1.96609C28.4498 -3.55262 19.211 3.51851 15.7498 11.2986C13.9074 15.9738 12.1902 11.8818 11.0097 9.39617C9.30143 6.02213 7.34276 1.89431 4.06043 0.036788C1.27895 -0.375994 0.831762 2.78268 2.18226 4.61328C4.606 9.10901 6.78825 13.3625 9.42664 17.6518C10.7771 22.5424 0.420353 32.6107 0 38.919C1.17162 43.5853 5.18733 39.287 6.28741 36.8372C16.0628 18.8543 12.2707 27.074 21.5722 39.8882C23.1641 41.9162 26.4017 40.3728 25.3285 37.8243C24.4252 35.7424 23.3967 33.6965 22.7796 31.489C21.4917 27.3791 17.5296 24.346 16.8141 20.1734C19.7655 14.6636 23.1105 7.32328 29.3979 5.06196C31.7143 4.3351 38.7172 6.67719 36.6065 1.96609H36.6154Z" fill="black"/>
</svg>
