<svg width="40" height="41" viewBox="0 0 40 41" fill="none" xmlns="http://www.w3.org/2000/svg">
<path d="M39.7608 1.56249C35.6728 -1.1956 28.7006 1.52713 25.3942 4.62113C23.5614 6.28306 22.6359 9.73066 20.3718 10.6058C17.4248 7.73282 15.2145 3.13601 11.2074 1.07629C7.87403 0.254165 2.13279 -1.33704 0.0573155 2.20781C-0.5806 5.7173 4.27115 4.81561 6.42749 5.39906C11.3152 6.53058 14.9091 11.4898 16.2927 16.0601C16.688 20.1088 12.5281 23.1763 11.0187 26.8803C9.51823 29.4616 3.21095 38.5226 6.3017 40.653C8.29631 41.8464 9.76082 39.6983 10.6683 38.2044C12.9414 34.5888 14.7563 31.0793 17.0474 27.5521C17.9998 26.4648 18.7815 21.6205 20.5874 23.4327C23.9477 28.5864 26.7959 34.58 30.857 39.0884C37.8291 40.2818 29.8417 29.6649 29.2577 26.8715C26.5263 22.4691 20.8929 17.5099 26.0951 12.7274C28.2244 10.2964 29.8327 7.06982 32.9863 5.75266C35.0708 4.50621 41.3242 5.52281 39.7608 1.55365V1.56249Z" fill="black"/>
</svg>
