<svg width="29" height="42" viewBox="0 0 29 42" fill="none" xmlns="http://www.w3.org/2000/svg">
<path d="M26.4822 7.75936C28.5324 5.92086 31.1581 -0.25509 26.0236 1.29782C23.9284 3.00245 22.4087 5.42999 20.3495 7.1971C18.0025 8.47334 16.4109 17.0501 13.4524 13.1053C10.7547 9.95485 6.19566 -1.87047 1.36682 0.253623C0.0809303 1.23535 0.620465 2.99353 1.30388 4.18945C3.61488 8.0628 5.85395 11.6149 8.34481 15.3008C11.5191 19.3794 12.0586 20.1559 8.65054 24.288C5.54822 29.152 1.47473 33.9179 0 39.5762C2.85054 47.5371 8.34481 33.4984 10.7188 31.3118C12.796 28.3756 13.929 22.753 16.9504 28.7237C19.3153 32.3828 21.9771 35.6314 24.1802 39.4512C24.9984 41.5129 28.5594 42.5928 28.973 39.7636C27.2915 33.784 23.6047 28.322 19.8369 23.4045C16.9324 20.736 19.2704 18.0407 21.2577 15.6489C23.0471 13.0607 24.5219 10.169 26.4732 7.75936H26.4822Z" fill="black"/>
</svg>
