<svg width="31" height="41" viewBox="0 0 31 41" fill="none" xmlns="http://www.w3.org/2000/svg">
<path d="M30.8248 6.92686C30.0606 4.79599 30.8338 1.93685 28.9277 0.381404C21.5191 -2.86435 27.5611 15.6032 24.6929 18.0667C-2.07328 16.9878 8.41024 22.2116 5.18247 2.51227C4.50814 0.0307546 0.812836 -0.0231914 0.534114 2.73705C0.066582 5.99179 0.713935 8.93185 0.219429 12.1326C0.381267 19.5862 -0.347004 27.0128 0.219429 34.5023C0.390258 36.4443 -0.436914 39.3574 1.649 40.4453C6.87277 41.8749 5.20944 28.5053 5.35329 25.3404C5.16448 21.2585 10.4152 23.83 12.8068 23.0657C16.3223 24.9628 26.4372 20.3954 25.2504 26.6351C26.0866 30.0787 23.8748 39.5462 28.0466 40.2385C32.7938 41.2815 29.8268 12.1596 30.8158 6.92686H30.8248Z" fill="black"/>
</svg>
