<svg width="33" height="41" viewBox="0 0 33 41" fill="none" xmlns="http://www.w3.org/2000/svg">
<path d="M32.6432 6.94494C32.4364 -2.87324 25.4324 -1.89322 27.1676 7.43945C27.8869 12.5643 18.7251 14.4614 15.7491 18.7052C12.4134 20.3146 8.63717 23.893 5.65216 24.873C4.55525 17.4464 6.82099 9.87601 4.98682 2.49439C4.77104 -0.184928 0.77903 -1.05706 0.212596 1.90998C-0.218972 4.11277 0.113695 6.15373 0.275533 8.26662C-0.00318778 18.0848 0.0237852 28.0738 0.904904 37.9459C1.54327 40.3465 5.08572 40.1038 5.17563 37.5413C5.3105 34.5563 5.47234 31.9309 8.36744 30.4115C11.8739 27.2376 15.9648 25.1068 19.6422 22.2386C21.4314 20.6562 23.823 19.1907 25.5493 17.5004C28.0308 15.3156 26.817 17.9589 26.7181 19.7122C26.9608 24.4774 27.0508 29.3056 27.2575 34.1158C26.6282 36.876 28.5882 42.7831 31.5822 38.6472C33.2456 28.1637 31.8609 17.5543 32.6522 6.94494H32.6432Z" fill="black"/>
</svg>
