<svg width="30" height="40" viewBox="0 0 30 40" fill="none" xmlns="http://www.w3.org/2000/svg">
<path d="M29.5939 12.6104C26.0694 10.2278 21.1153 12.3407 17.5459 11.1269C16.2152 8.06099 18.0404 1.80324 14.2282 0.06798C11.1263 -0.5524 11.2073 3.22382 11.3241 5.27377C12.0344 9.17587 11.8906 12.6374 6.89157 11.5585C4.33813 11.8642 -0.364171 11.8012 0.0224425 15.4426C1.12834 18.8772 5.79467 16.5395 8.38408 17.2048C12.2592 16.2878 11.1533 19.7853 11.6838 22.1679C12.4031 27.3647 11.432 33.5775 13.2482 38.5225C21.1873 42.9821 15.1363 20.4596 17.42 17.5105C20.3151 15.4156 32.1563 19.012 29.5849 12.6104H29.5939ZM11.8186 16.9711C11.9355 16.4226 12.2682 16.5215 11.8366 16.9711H11.8186Z" fill="black"/>
</svg>
