<svg width="30" height="41" viewBox="0 0 30 41" fill="none" xmlns="http://www.w3.org/2000/svg">
<path d="M29.1309 35.7592C24.6444 28.4765 16.7772 23.6753 10.4296 18.1458C12.2637 14.6483 27.1708 6.04392 24.9321 1.97099C23.6823 0.0199434 21.9111 1.19777 20.4456 2.1598C15.2757 5.61235 10.9241 11.2407 5.70929 14.1988C5.43057 11.2677 6.1948 7.37459 5.23277 4.34462C6.05994 0.79317 0.953047 -2.29075 0.17982 2.33962C0.0989011 10.98 0.0809191 19.2607 0 27.91C0.323676 31.2547 0.35964 34.4016 0.476523 37.8002C0.647353 41.4685 5.54745 40.8391 5.00799 37.1888C5.43956 33.5924 6.05095 29.996 5.48451 26.3906C5.71828 25.3206 4.33367 21.6523 6.35664 22.3806C12.0749 25.5364 16.3457 30.3017 21.3896 34.3656C23.0799 35.6153 24.0869 37.0179 25.7143 38.1778C27.2877 39.3736 29.976 37.6113 29.1399 35.7502L29.1309 35.7592Z" fill="black"/>
</svg>
