<svg width="43" height="38" viewBox="0 0 43 38" fill="none" xmlns="http://www.w3.org/2000/svg">
<path fill-rule="evenodd" clip-rule="evenodd" d="M19.5884 32.7289C21.0712 32.6971 22.5538 32.6653 23.5038 33.7208V33.7298C24.4748 40.9676 9.81945 35.9955 6.65459 33.4241C-5.53718 23.9745 0.262015 5.49797 14.0362 1.14641C14.4012 1.05156 14.8177 0.914721 15.2631 0.768359C17.3079 0.0964841 19.9607 -0.775342 21.0312 1.29924C21.6691 3.71709 19.528 4.51348 17.4509 5.2863C16.4538 5.65715 15.4716 6.02251 14.8185 6.55901C1.70952 13.1673 2.1411 27.9845 16.6436 32.417C17.5015 32.7736 18.5449 32.7513 19.5884 32.7289ZM30.9302 10.6623C19.7454 22.962 29.9861 31.1438 42.3308 34.0209C43.4996 42.4634 22.3708 33.7422 22.3798 26.6843C16.2479 16.2547 29.6265 -1.7093 40.9462 0.664233C42.9376 3.14348 39.5937 4.63384 37.4319 5.59734C37.1633 5.71709 36.913 5.82866 36.6934 5.93303C35.5747 6.74431 34.5153 7.65447 33.4551 8.56536C32.6237 9.27971 31.7917 9.99443 30.9302 10.6623Z" fill="black"/>
</svg>
