<svg width="36" height="40" viewBox="0 0 36 40" fill="none" xmlns="http://www.w3.org/2000/svg">
<path fill-rule="evenodd" clip-rule="evenodd" d="M30.0956 33.8092C31.6541 33.7702 33.3408 33.7281 35.6622 34.2161C38.1167 39.7276 26.2306 39.0443 23.1826 38.0013C8.7251 35.3939 4.24756 17.0073 13.4813 6.49678C17.7251 2.61275 23.3175 -0.3903 29.2695 0.0413403C32.0747 -0.372356 34.4844 3.07125 31.2117 4.43795C17.9409 4.22213 6.67517 21.305 19.3525 30.4848C24.705 33.9437 27.1752 33.882 30.0956 33.8092ZM0.476562 1.9858C4.38757 -2.58158 5.94312 4.2336 6.18579 7.41634H6.19482C6.35803 11.0859 6.05066 14.7945 5.74585 18.4716C5.66455 19.4526 5.58337 20.4312 5.51147 21.4063C5.55579 21.9599 5.60303 22.5169 5.65039 23.0764C6.11279 28.5315 6.59485 34.2198 4.62134 39.3165C0.0269775 41.4054 0.127319 36.1783 0.212646 31.7297C0.24707 29.9364 0.279053 28.2695 0 27.2595C0.11731 23.9082 0.0969238 20.5793 0.0765381 17.2563C0.0454102 12.1724 0.0144043 7.10213 0.476562 1.9858Z" fill="black"/>
</svg>
