<svg width="33" height="41" viewBox="0 0 33 41" fill="none" xmlns="http://www.w3.org/2000/svg">
<path d="M32.8635 37.9241C30.6967 28.025 25.2661 19.2947 22.4699 9.53047C20.5818 6.65335 20.8785 0.134865 16.9495 0C13.2002 0.206793 14.2611 4.09091 12.8765 6.41958C8.60581 13.3696 6.81659 21.3986 2.77963 28.5195C-3.39719 38.2747 2.06035 46.9421 6.22319 34.1928C9.49592 26.7662 13.0114 19.6723 15.7626 11.958C18.0913 5.86214 29.0334 51.7253 32.8725 37.9151L32.8635 37.9241ZM16.8416 9.8002C16.7696 10.3127 16.5449 10.0969 16.5808 9.75524C16.7606 9.21578 17.0574 9.16184 16.8416 9.8002Z" fill="black"/>
</svg>
