<svg width="36" height="42" viewBox="0 0 36 42" fill="none" xmlns="http://www.w3.org/2000/svg">
<path d="M35.2221 39.6473C32.2641 28.3006 27.1482 17.2237 23.1832 6.34456C25.1432 4.82508 28.2271 6.2007 30.376 5.1038C32.309 3.99791 31.5178 0.860044 29.1622 0.860044C25.4399 -0.398697 21.7446 0.797107 17.9954 0.545359C14.6147 0.104799 11.0003 -0.434661 7.70065 0.572332C5.57877 0.788116 4.6527 4.15075 6.60375 5.25665C8.66269 6.1018 10.9104 5.22068 13.0233 5.68821C16.8805 5.40949 12.34 9.32957 11.9534 10.8491C9.346 18.8421 5.06628 26.0618 1.54181 33.5783C1.29006 36.1857 -1.59605 39.7372 1.23612 41.6882C2.30605 42.3266 3.62772 41.868 4.25709 40.8251C7.65569 33.5783 11.1892 26.6283 14.2461 19.3006C15.8195 18.0239 17.6267 6.87503 19.6857 11.8201C22.5538 19.5703 25.0263 27.3835 28.6317 34.918C29.9624 37.1747 30.0163 40.861 32.6777 41.922C34.1342 42.2367 35.5008 41.0678 35.2311 39.6293L35.2221 39.6473Z" fill="black"/>
</svg>
