<svg width="38" height="42" viewBox="0 0 38 42" fill="none" xmlns="http://www.w3.org/2000/svg">
<path d="M37.6027 38.9359C36.4428 33.892 34.339 29.2526 31.6416 24.838C28.9983 19.2096 27.6137 12.889 23.7386 7.86299C21.7875 5.98387 22.8215 3.48437 22.1292 1.27258C18.3799 -3.15099 16.4558 5.16569 15.9523 7.854C13.0752 16.2966 9.82047 24.3885 6.68261 32.7591C5.82847 36.1307 2.50179 36.1217 0.218078 38.0458C-1.62508 43.7821 8.77752 40.1497 10.306 37.3805C14.4059 30.1877 16.0243 21.6912 19.6117 14.1297C20.8614 11.2256 21.9763 16.4044 22.4888 17.3125C24.0263 19.848 25.0692 22.4554 25.8694 25.3145C28.0452 27.6792 34.5278 48.2146 37.6027 38.9449V38.9359Z" fill="black"/>
</svg>
