<svg width="29" height="37" viewBox="0 0 29 37" fill="none" xmlns="http://www.w3.org/2000/svg">
<path d="M28.9908 26.5782C26.9914 16.6696 33.659 -14.7017 17.8781 8.17263C12.6565 14.8443 9.62174 2.14833 4.48939 0.853557C-2.09786 -2.73405 0.722697 6.63509 0.0264827 10.0519C0.338886 15.1321 -0.089553 19.9605 0.0978893 25.0677C0.294257 28.2866 0.499551 31.4696 0.570958 34.6526C1.2761 38.7617 5.3195 36.8645 4.64113 33.169C6.41737 30.1658 1.68669 -0.423234 8.53279 11.6254C17.896 21.2373 15.4146 17.7756 22.8944 9.5843C23.6174 8.37045 23.8049 9.81808 23.7692 10.4924C23.9834 18.4229 23.8584 26.3534 24.4386 34.3738C24.2512 36.2171 26.438 37.9525 27.884 36.3969C28.8658 33.5826 29.0354 29.6893 28.9908 26.5872V26.5782Z" fill="black"/>
</svg>
