<svg width="36" height="36" viewBox="0 0 36 36" fill="none" xmlns="http://www.w3.org/2000/svg">
<path d="M35.9996 4.73999C35.8111 -2.94864 29.3056 -0.13726 27.3495 5.0813C24.1192 10.8657 22.513 17.3687 19.0853 23.0993C14.6436 26.252 8.94573 -2.60732 1.41731 0.850764C-1.71429 4.81184 1.55191 12.6172 0.0175123 17.5843C0.259785 23.2071 0.161082 29.0005 0.816117 34.6053C7.0883 41.1442 4.6566 20.8807 4.74633 18.1053C5.23985 15.9855 4.522 8.79088 7.28571 14.0723C9.00854 19.1472 12.194 23.6562 14.7244 28.4436C19.3007 37.255 21.4452 30.1591 23.8141 24.8867C33.4422 3.21304 30.2209 7.06633 30.8311 27.0514C30.8131 29.6382 30.4183 39.7609 34.7792 34.4975C36.2508 24.6352 35.2099 14.6921 35.9996 4.731V4.73999ZM5.38341 11.0005C5.40136 10.8837 5.38341 10.5514 5.38341 10.4526C5.47315 10.5424 5.47315 10.8927 5.38341 11.0005ZM30.4183 8.69208C30.4722 8.51244 30.6785 8.01843 30.7683 7.8837C30.8759 8.10825 30.6785 8.61124 30.4183 8.69208Z" fill="black"/>
</svg>
