<svg width="38" height="36" viewBox="0 0 38 36" fill="none" xmlns="http://www.w3.org/2000/svg">
<path d="M37.8633 26.939C35.7185 20.1542 41.748 4.07567 33.4908 1.30168C28.7592 1.10733 22.7296 -0.429851 23.3924 6.49628C23.3648 10.1537 20.0324 18.0428 15.6967 13.2987C13.8004 8.61653 15.0247 -0.421017 7.29211 0.347572C5.27613 -0.474023 3.95975 0.294566 2.10946 1.26635C-1.60033 3.08622 0.774672 11.0813 0.480099 14.5974C0.480099 17.1329 -1.40701 40.0845 4.47525 34.7839C6.51886 25.9672 4.53969 16.6735 5.38659 7.61825C4.73301 4.80892 5.31295 4.6499 7.90888 5.1888C10.7626 5.79837 9.10558 11.5495 10.1642 13.7493C14.8958 24.6686 28.8604 18.246 27.8202 7.94512C27.2587 4.82659 30.4898 5.70119 32.2756 6.49628C33.6841 15.6398 31.8522 25.1279 33.2606 34.404C37.3202 39.9343 38.0751 29.5275 37.8633 26.9478V26.939Z" fill="black"/>
</svg>
