<svg width="34" height="42" viewBox="0 0 34 42" fill="none" xmlns="http://www.w3.org/2000/svg">
<path d="M33.9999 7.42973C33.2955 4.85238 33.9457 -0.819616 29.7826 0.387384C27.4347 1.54901 28.5364 6.65834 28.5544 8.78194C28.4551 14.3178 28.2293 19.8265 28.3377 25.3351C27.6333 27.5948 24.4997 27.1048 22.6665 26.8507C17.3204 26.3697 19.0001 22.0226 18.368 18.2746C14.5752 5.81435 5.34594 13.7642 5.6891 7.48419C4.93957 5.20631 5.70716 2.05722 3.67529 0.39646C2.36586 -0.501985 0.451386 0.18773 0.198531 1.84849C-0.126568 13.5918 -0.0633546 25.1899 0.469448 36.9513C0.523631 38.4487 0.388173 40.5814 2.05882 41.2258C7.81128 42.4418 5.05696 25.4258 5.10212 21.7776C4.08167 14.7353 10.0779 13.3195 13.1483 19.2729C13.1303 23.5382 13.5457 27.8852 17.203 30.7621C20.147 34.4012 28.4461 29.5006 28.717 33.9112C28.9969 35.9712 28.1752 40.2003 29.8548 41.5162C32.1396 42.9773 33.5212 40.8718 33.3948 38.6393C34.4604 28.2573 33.3497 17.8844 33.9999 7.42066V7.42973Z" fill="black"/>
</svg>
