<svg width="32" height="42" viewBox="0 0 32 42" fill="none" xmlns="http://www.w3.org/2000/svg">
<path d="M31.9439 30.1455C29.8468 25.5944 35.4242 -5.25863 26.3937 1.09294C25.5168 8.52121 26.4117 16.0761 26.1406 23.5587C26.3394 24.5178 26.3665 25.1059 25.3812 24.3549C19.8852 21.0524 15.1123 16.5647 10.2761 12.448C8.0253 11.2808 5.58462 10.3851 5.6931 7.36308C5.04225 5.29113 5.34056 2.98394 4.31909 1.07485C3.26146 -0.635193 0.377844 -0.255184 0.115697 1.86201C-0.155489 6.72069 0.0885784 11.4075 0.45016 16.1938C-0.390518 23.6401 0.8479 31.2765 1.01061 38.8405C1.81513 44.3506 6.5157 41.582 5.6479 36.9314C7.79931 31.3217 2.90892 20.8262 6.77784 16.9176C12.988 22.1834 20.1202 26.7888 26.1496 32.2537C27.2253 34.6694 26.4027 37.3657 26.9722 39.9533C31.6908 47.2188 32.1971 33.0861 31.9439 30.1546V30.1455Z" fill="black"/>
</svg>
