<svg width="32" height="41" viewBox="0 0 32 41" fill="none" xmlns="http://www.w3.org/2000/svg">
<path d="M31.8546 9.61201C31.0366 7.16412 31.5183 4.58073 30.8458 2.1509C27.0741 -1.57966 20.6123 1.00373 15.7955 0.515956C11.8421 0.380463 0.890656 -1.64289 0 3.37936C0.954274 7.02862 -2.1812 48.2815 5.28941 39.8449C7.07981 29.3578 4.98949 18.6719 5.75291 8.02223C5.49844 6.75764 5.64385 5.6466 7.12525 5.58337C12.5419 5.52917 17.7222 5.98985 23.1843 5.63757C28.81 4.79752 25.1838 14.4807 26.5197 17.7777C25.8018 24.9136 26.4016 32.4018 27.1287 39.5378C34.8356 48.5616 30.8185 13.1348 31.8637 9.61201H31.8546Z" fill="black"/>
</svg>
