<svg width="36" height="40" viewBox="0 0 36 40" fill="none" xmlns="http://www.w3.org/2000/svg">
<path d="M34.5951 1.68005C29.3799 -0.970549 23.0548 0.261044 17.3703 0.448461C13.1747 0.385988 -1.51469 -1.80946 0.127483 4.9643C1.34558 7.60598 6.95785 4.02722 6.49768 7.56136C7.77894 11.2115 3.33063 46.0442 11.0362 39.0651C12.6333 33.639 12.0739 28.0433 11.5866 22.4833C12.2724 17.066 12.2633 11.5774 11.8483 6.29407C13.1205 4.11647 16.7477 6.19589 18.823 5.66934C20.4652 5.29451 23.1631 4.91075 23.2443 7.29362C23.921 17.8871 22.2969 28.6412 24.2819 39.0741C25.7526 41.0375 28.5949 39.6274 28.3061 37.2445C28.9829 27.365 29.1994 17.0393 28.3332 7.20437C27.3226 3.00982 37.0945 7.82017 34.6042 1.68898L34.5951 1.68005Z" fill="black"/>
</svg>
