<svg width="32" height="42" viewBox="0 0 32 42" fill="none" xmlns="http://www.w3.org/2000/svg">
<path d="M31.9602 10.2158C32.1408 3.79348 31.9602 0.0182982 24.3326 0.273009C17.4632 1.93773 3.07448 -3.62953 0.231043 4.89419C0.267151 8.94228 -1.76388 46.785 5.58393 41.3724C7.4254 36.4147 5.84571 30.7201 5.34021 25.5894C4.88887 20.0404 5.73739 14.3003 5.52977 8.76944C4.72639 4.56671 11.2798 4.90329 13.1213 6.89549C13.9518 9.95202 12.345 14.7097 15.2607 16.8019C17.4542 17.7116 19.1151 15.7376 18.9165 13.5817C18.8172 11.2802 18.1131 8.05988 19.3227 6.10407C21.3447 5.83116 24.486 5.27626 26.2734 6.3133C27.2663 10.3978 25.6595 14.9189 25.9033 19.1398C25.4248 22.0053 24.4138 45.375 29.9924 41.5817C32.4116 39.1528 30.6694 28.2639 30.7236 24.5797C30.6694 19.7857 31.9241 14.9917 31.9602 10.2158Z" fill="black"/>
</svg>
