<svg width="26" height="42" viewBox="0 0 26 42" fill="none" xmlns="http://www.w3.org/2000/svg">
<g clip-path="url(#clip0_83_118)">
<path d="M25.8029 9.67969C23.4116 -0.298359 9.26069 -1.88002 1.40606 1.84367C-1.37038 4.73586 0.949291 9.35432 0.232791 12.8792C0.797035 19.4951 0.089491 26.0748 0.967204 32.7359C1.27172 35.3117 1.08363 37.5712 1.47771 40.0658C2.1136 43.22 6.26035 42.2349 5.82149 39.171C6.72607 34.67 5.80358 29.7262 6.15287 25.424C15.9868 24.7281 27.6479 22.9476 25.8208 9.68873L25.8029 9.67969ZM7.43362 20.679C7.43362 20.679 7.43362 20.661 7.43362 20.6519C7.43362 20.67 7.42466 20.6881 7.43362 20.679ZM21.1188 12.8701C20.053 19.0793 12.27 20.2633 7.17389 21.1671C3.51078 21.7455 6.73503 10.5925 5.35577 7.96245C4.02129 4.23876 10.7564 5.39564 12.7984 5.66678C16.8914 6.50732 21.4681 7.67324 21.1188 12.8611V12.8701Z" fill="black"/>
</g>
<defs>
<clipPath id="clip0_83_118">
<rect width="26" height="42" fill="white"/>
</clipPath>
</defs>
</svg>
