<svg width="28" height="40" viewBox="0 0 28 40" fill="none" xmlns="http://www.w3.org/2000/svg">
<path d="M27.9903 18.8422C25.9692 13.7736 20.7824 10.5325 16.9817 6.85031C13.0379 1.29551 -0.966574 -5.15059 0.0529083 6.56222C0.804106 14.4758 0.37485 22.1013 1.3049 30.0058C1.88619 32.8778 1.18865 37.8744 3.3081 39.819C8.28926 41.5926 6.68849 30.2849 6.59012 27.503C6.01778 20.7598 28.5895 28.9705 27.9903 18.8512V18.8422ZM21.3726 18.7702C17.2857 20.5258 12.5013 19.3194 8.21771 19.7515C3.37964 21.5521 6.7332 10.6135 5.42755 7.86765C3.8089 0.521258 14.3257 11.955 15.9354 13.1524C17.3036 14.5208 21.2206 16.9246 21.3816 18.7792L21.3726 18.7702Z" fill="black"/>
</svg>
