<svg width="26" height="40" viewBox="0 0 26 40" fill="none" xmlns="http://www.w3.org/2000/svg">
<g clip-path="url(#clip0_83_19)">
<path d="M25.6748 9.26781C22.5467 4.99102 11.4578 7.67852 6.82722 6.70531C4.49873 5.62495 5.56193 2.28567 4.00667 0.642809C-1.98589 -2.73219 0.694067 8.11602 0.0965683 11.2232C0.729214 15.241 -0.39549 19.3035 0.210796 23.2767C0.913736 28.1339 -0.755747 35.9017 2.14388 39.75C4.95564 41.0446 5.27197 37.0803 5.36862 35.125C5.80796 29.125 10.3683 27.116 15.0165 23.8839C18.2061 20.2589 27.8891 14.5089 25.6748 9.26781ZM19.2956 12.6071C16.9056 15.6875 13.47 17.366 10.8516 20.4375C6.30002 25.6875 4.07697 25.2857 5.15774 17.9821C5.39498 15.4196 4.33178 11.6428 8.00465 12.0982C11.5018 12.0982 16.642 11.9107 19.2956 12.6071Z" fill="black"/>
</g>
<defs>
<clipPath id="clip0_83_19">
<rect width="26" height="40" fill="white"/>
</clipPath>
</defs>
</svg>
