<svg width="22" height="31" viewBox="0 0 22 31" fill="none" xmlns="http://www.w3.org/2000/svg">
<path d="M1.22406 8.92C1.22406 3.8 5.46406 0.239999 11.6241 0.239999C17.5441 0.239999 21.3041 3.52 21.4641 8.8H16.3441C16.2241 6.28 14.4241 4.8 11.5441 4.8C8.38406 4.8 6.34406 6.32 6.34406 8.76C6.34406 10.84 7.46406 12 9.90406 12.56L14.5041 13.56C19.5041 14.64 21.9441 17.2 21.9441 21.56C21.9441 27 17.7041 30.52 11.2641 30.52C5.02406 30.52 0.944063 27.2 0.824063 21.96H5.94406C5.98406 24.44 7.98406 25.92 11.2641 25.92C14.6641 25.92 16.8241 24.44 16.8241 22C16.8241 20.04 15.8241 18.88 13.4241 18.36L8.78406 17.32C3.82406 16.24 1.22406 13.4 1.22406 8.92Z" fill="black"/>
</svg>
