<svg width="41" height="41" viewBox="0 0 41 41" fill="none" xmlns="http://www.w3.org/2000/svg">
<path d="M40.0012 14.0299C39.0751 11.4413 40.7862 8.47902 39.3309 6.0683C38.3254 4.47598 39.9218 1.3803 37.0729 0.882144C31.1545 -0.594532 25.2713 0.410675 19.2647 0.455153C12.3055 0.0459536 -2.20385 -2.20464 0.283469 9.06613C0.186446 11.8505 -0.448615 15.729 1.47421 17.9796C8.35403 20.0967 4.05855 9.75999 5.91963 6.33517C8.32757 4.69837 11.6087 6.14836 14.3165 5.47229C17.1126 4.52046 16.945 7.35817 17.1479 9.27073C16.9979 13.5584 17.6065 17.8283 16.9097 22.0805C18.2063 25.3718 15.2339 45.6183 21.8932 40.0319C23.8954 32.2126 21.5492 24.1887 22.5547 16.2805C23.0927 13.7719 21.5139 6.37075 22.881 5.57015C30.44 6.26401 35.9174 1.43367 34.4709 12.1262C33.9505 17.7928 39.4279 20.1857 40.0189 14.0299H40.0012Z" fill="black"/>
</svg>
