<svg width="37" height="42" viewBox="0 0 37 42" fill="none" xmlns="http://www.w3.org/2000/svg">
<path d="M36.8368 31.1657C35.3087 21.8884 36.8368 12.485 36.2435 3.20771C33.2141 -1.21477 24.926 1.11806 20.1167 0.829838C12.7545 0.0192015 -2.71613 -2.66491 0.412153 9.36855C0.304281 19.6636 -0.0373128 30.0668 1.0414 40.3439C7.34291 47.4234 5.81473 27.5718 5.43718 24.5635C5.73382 18.5468 5.43718 11.6203 6.16531 5.99089C15.4872 3.97331 15.1187 7.28791 14.6422 15.2502C15.6041 19.5646 12.6826 41.6499 17.4289 41.9201C22.2652 40.3439 19.6403 28.4816 19.7212 24.1942C19.9549 19.1052 20.9078 13.8991 19.7931 8.9272C19.2358 5.95486 22.0494 5.78373 24.3147 5.98189C26.4722 6.5133 31.0028 4.55877 30.9129 8.1616C31.1196 18.9791 30.3016 29.7966 32.5849 40.488C37.6639 46.2255 37.1155 34.0209 36.8368 31.1657Z" fill="black"/>
</svg>
