<svg width="43" height="40" viewBox="0 0 43 40" fill="none" xmlns="http://www.w3.org/2000/svg">
<path d="M42.6289 2.62115C35.6432 -2.2591 25.7698 1.9343 17.7685 0.352737C12.77 0.488299 -4.26578 -2.56638 0.997721 7.13087C3.12608 11.0622 4.24767 17.1083 8.99895 18.6175C12.4874 19.6659 15.1368 -0.921552 17.8038 7.52852C18.5633 17.8945 17.3269 28.4052 18.9872 38.726C23.3764 43.299 23.3941 34.2253 23.7209 31.4418C22.8112 24.3021 23.3588 17.1354 23.4736 10.0138C23.5266 8.82088 22.2814 6.64284 23.5531 5.94695C24.657 5.6939 26.4674 5.41374 27.121 6.48017C29.6026 11.3243 34.8572 25.1065 38.9285 13.2673C39.6615 9.59811 44.3068 6.58862 42.62 2.61211L42.6289 2.62115ZM7.08254 5.64872C10.6946 3.37126 10.0764 9.1643 8.53089 10.5832C7.24151 10.059 6.27006 6.76033 7.08254 5.64872ZM34.3274 5.43182C39.5025 5.10647 34.7071 7.9352 34.4333 10.1494C33.9211 10.1765 33.718 8.8028 33.4972 8.30574C32.7112 6.97723 32.0135 5.16069 34.3274 5.43182ZM32.6141 5.61257C32.5346 5.63968 32.4374 5.67583 32.3138 5.73005C32.3315 5.59449 32.5081 5.63064 32.6141 5.61257Z" fill="black"/>
</svg>
