<svg width="40" height="41" viewBox="0 0 40 41" fill="none" xmlns="http://www.w3.org/2000/svg">
<path d="M38.9444 5.56673C27.4475 -9.40781 20.8636 11.1732 17.3865 5.80071C5.34766 -9.94776 -4.99327 11.7491 2.58406 10.4173C7.65969 4.93679 7.65066 2.84899 13.4217 9.72432C18.7954 15.4028 10.8839 22.4311 11.0194 29.0004C9.61047 40.8433 26.0295 46.3237 29.8137 34.0579C31.3129 26.4267 25.9302 20.2893 23.0672 13.7829C22.6608 11.4342 24.8284 9.05839 26.2192 7.35755C30.491 1.82309 34.2481 6.8986 37.4 10.4263C40.7687 12.1631 40.3533 7.24057 38.9354 5.54873L38.9444 5.56673ZM24.0878 27.2456C25.3612 30.3413 25.6683 35.4528 21.3332 35.9118C13.0966 35.8128 16.8266 25.7698 18.8496 21.1802C20.5385 17.4186 23.1756 25.8687 24.0878 27.2546V27.2456Z" fill="black"/>
</svg>
