<svg width="34" height="40" viewBox="0 0 34 40" fill="none" xmlns="http://www.w3.org/2000/svg">
<path d="M32.8684 0.623624C28.0634 0.214462 22.3508 5.55135 18.3822 7.91737C14.556 9.60739 11.931 4.1015 8.71874 2.74949C6.9302 1.08615 -0.757837 -2.36504 0.0607973 2.49154C2.74805 6.60094 14.0132 9.23381 11.2903 15.4513C5.86242 24.0437 3.30864 37.3236 16.1843 40.001C29.1134 39.0581 26.0257 22.9407 20.9627 15.3179C19.6724 13.0764 21.8169 11.5731 23.3296 10.2389C24.9757 7.32142 37.8247 4.20824 32.8684 0.623624ZM20.144 28.2598C21.6389 34.4328 15.5526 37.7239 12.3314 31.5954C11.0501 29.6385 12.0645 27.317 12.6962 25.3067C16.5847 12.9429 18.2576 21.0639 20.1351 28.2509L20.144 28.2598Z" fill="black"/>
</svg>
