<svg width="33" height="40" viewBox="0 0 33 40" fill="none" xmlns="http://www.w3.org/2000/svg">
<path d="M32.8857 35.2774C30.0453 28.4776 25.0613 23.0448 20.8801 17.1061C16.9723 12.49 33.6708 0.523746 24.4438 0C22.0445 2.08611 20.0332 4.95339 17.8897 7.31469C15.7638 11.3537 14.3436 5.59254 12.4117 4.38526C10.7445 2.91167 9.43019 -0.443853 6.73973 0.60364C4.94021 1.45584 5.42538 3.39991 6.34278 4.82024C8.30108 8.13138 10.8239 10.7146 12.4382 14.1767C13.4085 16.9374 9.50076 19.6183 8.1423 21.7665C3.767 27.9006 -7.71816 41.5002 8.07173 39.8668C11.9795 39.2011 34.8175 41.518 32.8857 35.2774ZM26.2698 34.15C19.7774 34.3364 13.2762 34.7803 6.72209 34.5317C4.75497 34.1145 8.59218 30.182 9.25377 29.1966C11.6267 26.1252 14.8993 16.3515 19.0541 22.6099C19.7157 24.1988 28.4839 34.3009 26.2698 34.1589V34.15Z" fill="black"/>
</svg>
