<svg width="27" height="41" viewBox="0 0 27 41" fill="none" xmlns="http://www.w3.org/2000/svg">
<path d="M12.4561 17.3773C39.2853 2.44322 24.585 -2.82551 3.55504 1.41824C-2.6128 3.33333 1.22636 11.5871 0.731858 16.3703C0.21038 21.9897 1.05553 27.5821 1.46013 33.3093C1.52307 35.1975 0.0755149 37.4542 1.30728 39.1085C3.84275 40.8258 7.75384 39.63 10.7388 40.3943C16.3492 40.9067 28.7299 41.1765 26.3832 33.0126C24.3782 26.4762 2.85374 20.4882 12.4651 17.3683L12.4561 17.3773ZM8.92267 25.685C12.3482 27.5012 14.7938 30.5851 18.2733 32.3203C20.7638 33.7049 21.6989 35.1975 18.1474 35.1345C14.8118 34.9187 9.70488 36.6 6.54904 34.9277C5.71288 33.4982 6.62996 30.8368 6.3872 28.9847C6.09949 26.2154 5.2903 22.3313 8.92267 25.685ZM8.50908 14.68C4.56203 17.665 5.91068 12.7109 5.66792 10.4272C5.31727 6.5611 4.42716 5.07758 8.93166 5.4552C11.584 5.41025 13.8497 5.12254 16.4302 5.5631C17.7518 5.88677 20.7009 4.52014 19.1634 6.42623C15.603 8.99766 11.9257 11.9557 8.50908 14.671V14.68Z" fill="black"/>
</svg>
