<svg width="40" height="29" viewBox="0 0 40 29" fill="none" xmlns="http://www.w3.org/2000/svg">
<path d="M39.3159 23.4295C36.8613 21.5144 32.8514 22.5214 29.9922 21.6313C28.4548 21.0019 27.3938 5.18672 29.8573 5.48342C32.4018 4.71019 40.8893 6.17573 38.2999 1.41948C35.9622 -0.819276 29.1561 0.232671 26.0092 0.340564C21.1361 0.736168 16.173 0.160743 11.2729 0.277627C3.96325 0.403501 -1.24254 2.96594 0.258953 11.1388C0.187025 15.5533 0.0251873 19.9769 0.429783 24.4185C0.636576 32.6453 8.17104 26.5853 13.0621 27.9519C16.4068 27.0169 43.5956 29.7232 39.3159 23.4295ZM21.3339 22.881C3.27993 21.6942 4.52968 26.7382 6.29192 6.34656C10.4458 5.15974 15.247 5.54636 19.5806 5.62728C23.7525 5.27663 23.195 8.57633 23.3928 11.6153C22.2599 14.897 26.6296 22.908 21.3339 22.89V22.881Z" fill="black"/>
</svg>
