<svg width="28" height="41" viewBox="0 0 28 41" fill="none" xmlns="http://www.w3.org/2000/svg">
<path d="M27.6737 25.2738C27.2781 21.021 22.1172 18.9531 20.2561 16.2738C20.9034 14.3407 22.9984 12.9561 23.304 10.7713C24.0593 5.53851 18.6287 1.70834 14.0523 0.665387C3.50585 -2.07687 -1.17847 3.91114 0.251104 13.9541C0.439915 21.2188 0.341014 28.4386 1.12323 35.7303C1.72563 39.7403 6.84151 39.5605 9.98837 40.064C19.1232 41.3767 29.6967 35.4246 27.6737 25.2738ZM5.47488 5.82623C8.67568 3.1559 24.329 8.20884 16.2911 11.9581C12.8385 13.5855 4.71064 18.027 5.51983 11.2208C5.52883 9.4496 4.09926 7.28277 5.47488 5.81723V5.82623ZM22.5218 28.5915C22.0273 34.7773 13.36 35.7663 8.53182 35.7663C6.41894 35.6314 5.96939 34.04 6.10425 32.1879C6.76959 28.6904 3.80255 22.064 6.58976 19.7443C12.371 20.4276 23.1872 20.3197 22.5218 28.5915Z" fill="black"/>
</svg>
