<svg width="30" height="42" viewBox="0 0 30 42" fill="none" xmlns="http://www.w3.org/2000/svg">
<path d="M28.9237 2.72428C23.6819 -1.37562 16.4801 0.746254 10.3302 0C4.64793 0.323676 -2.38304 -0.971029 0.79079 7.43556C2.36422 9.26074 5.20537 8.17282 5.2773 5.83516C9.76381 5.2957 14.6549 4.8012 19.0605 5.79021C19.4291 7.6963 15.4102 8.44256 14.6819 10.007C6.23934 17.5145 3.66791 20.2028 17.1274 21.3806C23.0525 24.1858 20.7778 32.2507 15.2214 33.995C11.9936 36.962 -0.998421 34.7772 0.907673 38.7512C14.4301 49.019 38.1394 26.2268 19.0785 16.2198C11.3282 15.3027 31.6929 7.05794 28.9057 2.71528L28.9237 2.72428Z" fill="black"/>
</svg>
