<svg width="31" height="42" viewBox="0 0 31 42" fill="none" xmlns="http://www.w3.org/2000/svg">
<path d="M30.3259 1.35655C26.1901 -0.720377 21.2001 0.0978047 16.6956 0.511391C11.8674 0.385517 6.9673 -0.666431 2.265 0.691211C-0.495237 1.03287 -0.944787 5.29461 2.10316 5.61828C6.95831 5.77113 11.6966 5.24965 16.5068 5.85205C19.7795 5.14176 21.4788 5.57333 18.233 8.23466C11.8404 12.5503 -4.61312 24.8411 14.0432 23.4654C14.9243 23.2586 20.6606 22.6383 19.1951 24.1038C17.4328 26.8101 -3.77695 39.937 6.10416 41.1148C10.3749 39.3076 13.5307 36.0618 16.7495 32.8161C19.9503 30.4425 30.9463 23.3216 30.299 19.2576C28.7975 14.942 14.5287 20.2646 15.9583 16.6862C19.0512 12.5953 32.3849 7.02088 30.308 1.34755L30.3259 1.35655ZM21.6766 22.7731C21.5507 22.899 21.218 22.7641 21.0652 22.7731C20.7325 22.4584 21.6496 22.4135 21.6766 22.7731ZM20.6246 22.899C20.5707 22.944 20.5257 22.9889 20.4718 23.0339C20.5167 22.899 20.5707 22.881 20.6246 22.899Z" fill="black"/>
</svg>
