<svg width="31" height="42" viewBox="0 0 31 42" fill="none" xmlns="http://www.w3.org/2000/svg">
<path d="M30.1082 10.6355C26.26 6.4547 7.01028 -5.15269 3.33295 2.61554C2.67661 4.3598 0.80648 5.33982 0.168119 7.06609C-0.730982 8.98117 2.1821 11.6515 4.02526 10.8783C4.89739 10.15 5.31997 9.02613 6.00328 8.13602C8.04424 4.82733 9.6806 4.62953 12.9893 6.67948C16.4868 8.42373 20.7935 9.98817 23.6796 12.5416C22.3669 16.4077 18.5098 19.5366 15.8484 22.6475C13.0253 28.186 2.91937 34.3448 12.7555 38.5616C14.4279 39.9192 16.9633 42.5806 19.1032 40.5126C22.1421 37.2759 17.4758 36.107 15.8934 34.0391C16.2081 25.7944 30.6656 19.2399 30.1172 10.6355H30.1082Z" fill="black"/>
</svg>
