<svg width="40" height="42" viewBox="0 0 40 42" fill="none" xmlns="http://www.w3.org/2000/svg">
<path d="M39.9732 37.7981C39.6026 29.5132 33.6365 22.0064 25.0761 20.7332C21.2614 20.5652 23.5393 16.5333 22.4998 14.2079C22.0026 10.0787 31.8286 14.2786 30.2105 8.6905C29.18 6.4535 25.2026 7.09011 23.1597 6.97517C21.7857 5.89645 22.5902 3.15546 21.5326 1.64349C19.0015 -2.07896 15.4851 1.17487 16.8591 4.93268C17.3653 8.54019 12.5924 6.75412 10.6128 8.36335C7.17776 12.4041 11.2998 13.4651 15.0964 12.8197C16.6783 12.9346 17.1845 13.2264 17.2388 14.8622C16.9495 16.5863 18.8388 19.5042 16.4885 20.2646C7.51222 21.4759 -2.65727 30.813 0.633127 39.9909C6.07493 42.6789 4.75516 32.0332 8.54273 30.2117C15.1958 22.926 27.5077 24.0578 33.1574 31.9536C35.3992 34.3763 34.6218 38.5055 36.8998 40.6894C38.9789 41.8389 40.2263 39.6903 39.9642 37.807L39.9732 37.7981ZM17.0218 12.8108C17.0851 12.7313 17.1393 12.6428 17.2026 12.5809C17.2569 12.6517 17.2026 12.7313 17.0218 12.8108Z" fill="black"/>
</svg>
