<svg width="35" height="43" viewBox="0 0 35 43" fill="none" xmlns="http://www.w3.org/2000/svg">
<path d="M34.8334 36.538C32.9467 31.8534 37.0482 22.4126 30.7045 20.8272C21.681 18.4177 18.6185 25.3595 19.1745 12.8195C21.3894 11.5386 27.9883 12.506 25.1446 7.87516C22.556 5.58214 18.5092 8.8694 18.8829 4.04151C18.4636 -1.73584 11.5092 -1.1805 13.3685 4.82078C13.9336 7.77663 10.4519 6.72865 8.84769 7.97369C8.31905 8.19762 8.10941 9.29039 7.47139 9.02167C7.19796 8.86045 6.8516 8.38572 6.83337 8.73505C7.6628 16.68 14.5534 8.26032 13.8881 17.4056C15.8386 23.5233 1.58337 16.9219 0.261757 24.5086C1.20967 28.3512 -2.39059 41.7331 3.32426 41.6256C5.79431 41.4196 6.01306 36.6813 5.61202 34.9347C5.63025 31.2891 4.37243 24.0607 10.1602 25.7536C15.1003 25.4849 19.7852 26.1388 24.8073 25.7536C27.2774 25.1893 29.4102 25.9775 28.7995 28.7632C29.1003 32.2207 28.8815 35.6871 29.6381 39.1803C30.6954 44.9487 35.9818 40.7926 34.8334 36.5469V36.538ZM28.4349 25.7715C28.4349 25.7715 28.4076 25.7805 28.3985 25.7894C28.4076 25.7715 28.4258 25.7357 28.4349 25.7088C28.4805 25.7267 28.4805 25.7536 28.4349 25.7715Z" fill="black"/>
</svg>
