<svg width="35" height="40" viewBox="0 0 35 40" fill="none" xmlns="http://www.w3.org/2000/svg">
<path d="M35 37.7552C33.9435 31.9093 23.7183 23.4892 19.2863 19.163C18.6506 18.0635 19.3579 16.3831 19.1967 14.9887C19.3131 14.0233 18.2208 12.2982 19.6444 12.0121C22.1335 11.2702 27.9534 12.754 27.5416 8.60656C26.5029 5.72834 22.1514 6.60432 19.7339 6.44343C18.1939 5.63002 19.0893 2.55516 17.8447 1.16075C17.0747 -0.305175 13.8245 -0.510762 13.2336 1.35739C12.7501 2.7965 13.7171 4.3965 13.0903 5.81773C12.2666 7.23896 10.064 6.32723 8.66718 6.72052C5.86467 6.65795 2.65925 9.9384 5.72141 12.0568C8.04937 12.8881 11.2279 11.2971 13.341 12.5753C14.7915 17.2054 13.726 19.9138 9.97442 22.8814C7.5032 28.2982 1.47736 31.6144 0 37.4423C0.349194 41.2948 4.76337 40.4367 5.75723 37.2904C7.61064 34.868 9.56255 32.5708 11.5234 30.2647C13.144 28.7183 15.0422 22.1395 17.9969 25.125C21.1755 28.1641 23.9959 31.3105 27.0133 34.5373C29.1891 36.3607 32.681 42.3764 35.009 37.7552H35Z" fill="black"/>
</svg>
