<svg width="29" height="39" viewBox="0 0 29 39" fill="none" xmlns="http://www.w3.org/2000/svg">
<path d="M12.6042 6.68L9.00422 0.439997H12.8042L15.1242 4.4L17.4042 0.439997H21.2042L17.6042 6.68H12.6042ZM14.9242 38.48C6.40422 38.48 0.884219 32.56 0.884219 23.4C0.884219 14.32 6.60422 8.28 15.1642 8.28C22.0842 8.28 27.2442 12.32 28.2442 18.6H22.8442C21.8442 15.2 18.9242 13.2 15.0442 13.2C9.64422 13.2 6.24422 17.12 6.24422 23.36C6.24422 29.56 9.68422 33.56 15.0442 33.56C19.0042 33.56 22.0442 31.48 23.0042 28.24H28.3242C27.2042 34.4 21.8442 38.48 14.9242 38.48Z" fill="black"/>
</svg>
