<svg width="28" height="39" viewBox="0 0 28 39" fill="none" xmlns="http://www.w3.org/2000/svg">
<path d="M28.003 13.6934C27.1242 9.75289 28.7931 5.28341 26.8756 1.61614C25.9434 -0.420252 21.8775 -0.0676295 21.9308 2.42717C22.206 4.09331 22.3214 5.79471 22.5699 7.46085C22.0284 9.75289 23.1292 12.3535 22.2415 14.4868C17.3677 15.3684 10.9935 15.3331 6.3239 14.0108C4.29981 10.0438 7.09626 4.85145 4.68155 1.04313C1.10387 -1.80429 -0.582881 1.71311 0.180594 5.17762C0.331514 8.65977 0.153961 12.1066 0.802027 15.6064C1.50336 20.7371 7.87749 20.0583 11.7037 20.0054C14.8819 21.7773 8.80964 44.8123 17.1901 37.6189C18.5484 32.1973 17.5718 26.1851 18.1223 20.7283C22.8807 19.2472 28.003 20.9839 28.003 13.6934Z" fill="black"/>
</svg>
