<svg width="34" height="42" viewBox="0 0 34 42" fill="none" xmlns="http://www.w3.org/2000/svg">
<path d="M33.7362 0.808201C30.1827 -3.30369 28.424 9.48171 22.7708 12.0792C8.25188 19.8165 6.31364 -1.96365 1.01039 0.303394C-2.30974 4.69981 3.3973 10.9411 5.98163 14.4655C8.57492 17.6229 13.932 16.9712 15.8792 20.4957C16.8573 26.2413 16.4266 31.9044 17.6829 37.7051C17.4047 40.2842 19.9621 43.7811 22.1426 40.945C23.6322 34.1806 21.3709 26.9205 21.4248 20.0092C21.2812 17.9533 23.8206 17.6412 25.2474 16.9253C30.3353 14.2269 35.2258 6.6915 33.7272 0.808201H33.7362ZM20.4018 18.6233C20.4915 18.6509 20.5902 18.7059 20.6889 18.7885C20.6441 18.7243 20.3928 18.7059 20.4018 18.6233Z" fill="black"/>
</svg>
