<svg width="22" height="39" viewBox="0 0 22 39" fill="none" xmlns="http://www.w3.org/2000/svg">
<path d="M8.90406 6.68L5.30406 0.439997H9.10406L11.4241 4.4L13.7041 0.439997H17.5041L13.9041 6.68H8.90406ZM1.22406 16.92C1.22406 11.8 5.46406 8.24 11.6241 8.24C17.5441 8.24 21.3041 11.52 21.4641 16.8H16.3441C16.2241 14.28 14.4241 12.8 11.5441 12.8C8.38406 12.8 6.34406 14.32 6.34406 16.76C6.34406 18.84 7.46406 20 9.90406 20.56L14.5041 21.56C19.5041 22.64 21.9441 25.2 21.9441 29.56C21.9441 35 17.7041 38.52 11.2641 38.52C5.02406 38.52 0.944063 35.2 0.824063 29.96H5.94406C5.98406 32.44 7.98406 33.92 11.2641 33.92C14.6641 33.92 16.8241 32.44 16.8241 30C16.8241 28.04 15.8241 26.88 13.4241 26.36L8.78406 25.32C3.82406 24.24 1.22406 21.4 1.22406 16.92Z" fill="black"/>
</svg>
