<svg width="41" height="44" viewBox="0 0 41 44" fill="none" xmlns="http://www.w3.org/2000/svg">
<path d="M41.0001 29.0222C39.2782 23.6819 43.6324 1.94384 36.159 2.62402C32.8325 3.81892 36.5467 30.4928 35.6452 36.3754C35.6813 37.6347 34.9781 38.4711 33.734 38.1678C30.2723 37.4968 26.6753 38.7193 23.2586 38.4068C20.5812 36.9177 23.5291 32.4139 22.6366 29.831C20.6082 20.3729 25.5575 8.88347 20.7435 0.34451C18.9856 -0.694136 17.2547 0.767322 17.2457 2.70674C17.2998 12.027 16.8941 20.9979 17.1104 30.2998C17.9128 38.4711 17.6964 38.2781 9.97962 38.0851C8.44708 38.2229 5.40904 39.7028 5.23776 37.1751C6.0491 32.6437 5.47215 28.1582 5.11155 23.6083C5.09352 16.5217 6.97764 8.8559 4.25513 2.18282C-2.01026 -1.83389 0.712252 9.80263 7.12333e-05 12.8358C0.18037 21.8252 -0.189243 30.9524 0.540968 40.0061C2.92092 46.5229 18.6881 42.9014 24.8543 43.7379C42.2712 42.6716 39.4225 47.2031 40.9911 29.0222H41.0001Z" fill="black"/>
</svg>
