<svg width="42" height="42" viewBox="0 0 42 42" fill="none" xmlns="http://www.w3.org/2000/svg">
<path d="M41.3935 35.5502C40.5148 34.6813 38.9636 34.98 37.8965 34.6542C34.0857 24.997 38.2193 11.276 34.2561 0.949088C26.3474 -5.42266 32.0592 23.0149 31.1536 26.8252C32.8393 33.4414 30.9115 36.1294 23.9982 34.455C23.1284 30.9615 26.0605 -7.13325 17.4704 1.18441C17.1386 9.34821 18.7168 17.5211 18.5374 25.8387C19.1561 33.1427 20.6087 36.4372 11.6241 34.7628C8.52165 30.7985 13.4892 -2.4178 4.63907 3.66432C3.7424 12.878 5.0605 22.5261 5.69714 31.8484C7.60704 38.3016 -1.30585 33.8305 0.164686 39.5959C2.88159 42.9085 16.0357 39.1614 21.0302 40.6458C24.2761 39.4692 45.9128 41.5509 41.3756 35.5502H41.3935Z" fill="black"/>
</svg>
