<svg width="42" height="32" viewBox="0 0 42 32" fill="none" xmlns="http://www.w3.org/2000/svg">
<path d="M41.5652 17.8727C39.38 12.6615 41.4195 6.65281 39.4256 1.54357C38.3785 -0.960054 33.8171 -0.338785 34.4726 2.83247C35.028 6.04081 34.764 9.23989 35.0644 12.4297C36.7124 21.5818 34.6638 17.1495 27.2344 20.6453C20.3421 23.7516 22.4635 20.7565 21.4802 14.72C21.6805 11.6693 22.2814 8.21062 20.7336 5.46591C19.5045 3.34247 15.1979 4.26046 15.9809 7.19063C16.245 12.3741 16.3451 17.4462 16.6092 22.6296C0.65773 30.4372 8.26926 21.1367 4.93694 10.807C4.36334 9.46243 2.45136 9.07298 1.1767 9.64789C-1.02664 10.8812 0.612206 13.6351 0.238913 15.6288C0.976394 20.6453 -0.234532 26.6076 2.55151 31.1419C6.87624 34.2854 16.764 27.5534 22.2723 27.9336C26.3785 25.5134 45.1069 24.3822 41.5652 17.8542V17.8727Z" fill="black"/>
</svg>
