<svg width="43" height="41" viewBox="0 0 43 41" fill="none" xmlns="http://www.w3.org/2000/svg">
<path d="M42.5886 2.7705C39.3878 -1.3294 37.4008 4.6676 35.5037 6.72654C32.8243 10.4938 29.156 13.5597 25.6585 16.6796C22.8173 17.1291 26.2159 2.24902 22.3678 0.297971C16.2989 -2.25548 19.5626 12.3549 19.2299 15.4478C19.9762 19.8085 11.9832 11.3659 10.8413 10.4848C8.80936 7.69757 7.20896 4.38888 4.61955 2.10516C2.6685 -0.0886429 -1.25158 1.86241 0.393773 4.82944C3.63054 9.74752 6.7684 14.5757 11.4437 18.253C12.136 18.9633 15.8403 20.5367 14.5636 21.6157C11.3898 24.1331 8.00916 26.4258 5.67149 29.7885C3.3698 31.9643 -2.61821 42.3489 4.82634 39.4448C9.17799 34.4908 12.4777 28.9163 18.4387 25.6706C20.8213 24.3849 17.207 42.7985 22.8353 40.4878C25.9013 37.0262 24.5526 30.283 24.5526 25.8144C25.6585 20.4109 36.9602 39.4628 38.7224 40.6586C45.4297 41.7915 39.9092 32.0992 37.4637 29.9953C36.4567 27.9094 29.0121 20.8964 30.5226 19.8534C34.4157 14.5847 43.4337 10.0982 42.5796 2.7705H42.5886Z" fill="black"/>
</svg>
