<svg width="45" height="42" viewBox="0 0 45 42" fill="none" xmlns="http://www.w3.org/2000/svg">
<path d="M43.5931 37.7346C35.5281 36.4399 26.672 34.4889 27.2384 24.1762C28.0206 22.405 35.0606 22.9804 37.1195 22.6477C40.4103 22.7466 40.7789 18.0623 37.2184 18.2152C35.3393 18.1522 33.4692 17.8375 31.6081 17.5858C29.7379 17.388 26.8518 18.3051 27.8498 15.3111C30.0346 9.29607 36.5531 6.61675 41.705 3.79358C45.643 -5.83579 25.8898 5.4659 24.8019 9.15222C18.0496 26.6667 23.66 12.2451 15.8198 5.25012C12.7 1.80656 5.30037 -1.29533 1.0746 1.03334C-1.03829 5.93344 8.2674 5.34003 10.632 7.83953C12.2864 8.99937 16.701 15.4549 14.9747 17.2441C11.3243 19.4559 2.52215 15.9764 0.400273 20.8945C0.364309 26.6307 12.1965 21.407 14.9207 24.1402C15.9188 26.6667 13.2484 31.8545 11.63 33.8775C9.01366 37.1412 4.58109 36.4219 1.09258 37.6177C-5.53379 43.8935 20.1445 44.5498 20.1805 26.6847C20.1985 23.9424 21.5471 24.0863 22.0596 26.7296C22.2934 43.6058 48.0886 44.37 43.5751 37.7256L43.5931 37.7346Z" fill="black"/>
</svg>
