<svg width="37" height="42" viewBox="0 0 37 42" fill="none" xmlns="http://www.w3.org/2000/svg">
<path d="M35.8041 35.5905C31.7312 19.3347 17.0668 29.7823 21.6972 14.8033C23.4055 12.07 28.881 15.0011 29.5823 11.2248C29.87 7.00806 24.0169 9.20187 22.0299 7.34972C20.8341 5.55152 21.5533 3.15092 20.6093 1.2718C19.7911 -0.463468 16.8331 -0.472459 16.3475 1.55052C15.6193 3.53753 16.5453 6.08198 15.88 7.96111C14.0728 8.93213 11.3665 7.96111 9.46942 9.04902C6.58331 9.60646 6.97891 14.7313 10.2606 14.111C14.1268 13.6164 17.4804 13.4816 15.7721 18.5255C15.7991 26.6354 11.6452 21.025 4.56932 27.9301C1.07182 29.5575 -3.13597 42.5405 3.50838 40.8592C7.12277 35.024 5.26163 32.2638 13.4255 28.7124C17.5883 28.5505 15.1697 35.5545 15.9429 38.2518C16.0329 41.066 19.881 41.7134 20.3126 38.7193C21.1397 36.5435 19.917 26.7164 23.7292 29.4137C28.6203 32.1469 30.5084 33.9901 32.3156 39.3307C35.2197 44.0061 38.0069 39.2678 35.8041 35.5905Z" fill="black"/>
</svg>
