<svg width="50" height="50" viewBox="0 0 50 50" fill="none" xmlns="http://www.w3.org/2000/svg">
<g clip-path="url(#clip0_3_436)">
<path d="M49.0914 4.5464C48.2873 2.97292 47.0271 1.71273 45.4501 0.908584C43.6643 0 41.7705 0 38.3346 0H11.6689C8.22948 0 6.33224 0 4.55685 0.908584C2.9764 1.70925 1.71622 2.96944 0.908584 4.54988C0 6.33572 0 8.22948 0 11.6654V38.3311C0 41.7705 0 43.6678 0.908584 45.4466C1.71273 47.0271 2.97292 48.2873 4.54988 49.0914C6.33224 50 8.22948 50 11.6689 50H38.3346C41.7705 50 43.6643 50 45.4501 49.0914C47.0306 48.2873 48.2907 47.0271 49.0914 45.4501C50 43.6678 50 41.7705 50 38.3311V11.6654C50 8.22948 50 6.33572 49.0914 4.5464ZM35.2955 29.7396L26.9756 38.0666C26.9477 38.0909 26.9233 38.1188 26.8955 38.1431H26.892C26.8398 38.1884 26.7876 38.2337 26.7354 38.2789C26.7319 38.2789 26.7319 38.2824 26.7284 38.2824L26.7214 38.2894C26.7214 38.2894 26.718 38.2928 26.7145 38.2928C26.7145 38.2928 26.7122 38.2952 26.7075 38.2998C26.7075 38.2998 26.704 38.3033 26.7005 38.3033C26.7005 38.3033 26.6994 38.3056 26.6971 38.3102C26.6971 38.3102 26.6936 38.3102 26.6936 38.3137H26.6901H26.6831C26.6831 38.3137 26.6831 38.3172 26.6797 38.3172C26.6797 38.3207 26.6762 38.3207 26.6762 38.3242L26.6692 38.3276H26.6657C26.6657 38.3276 26.6623 38.3311 26.6623 38.3346C26.6588 38.3346 26.6553 38.3381 26.6553 38.3381C26.4743 38.4739 26.2793 38.5818 26.0774 38.6653H26.0739C25.7815 38.7906 25.4613 38.8637 25.1305 38.8777C25.0888 38.8812 25.047 38.8812 25.0052 38.8812C24.96 38.8812 24.9147 38.8812 24.8729 38.8777C24.5596 38.8637 24.2603 38.7976 23.9852 38.6862C23.6545 38.5574 23.3447 38.3625 23.0732 38.1014C23.0732 38.1014 23.0662 38.0909 23.0627 38.0874H23.0592C23.0592 38.0874 23.0558 38.084 23.0558 38.0805C23.0523 38.077 23.0488 38.077 23.0488 38.0735C23.0453 38.0735 23.0453 38.0735 23.0453 38.0735C23.0453 38.0735 23.0453 38.0724 23.0453 38.07L14.7114 29.7361C13.6253 28.6535 13.6253 26.892 14.7114 25.8094C15.7941 24.7232 17.5555 24.7232 18.6382 25.8094L22.2307 29.4019V13.8864C22.2307 12.3512 23.4735 11.1084 25.0087 11.1084C26.5439 11.1084 27.7867 12.3512 27.7867 13.8864V29.3985L31.3758 25.8094C32.4584 24.7232 34.2164 24.7232 35.3025 25.8094C36.3886 26.892 36.3886 28.65 35.3025 29.7361L35.2955 29.7396Z" fill="black"/>
</g>
<defs>
<clipPath id="clip0_3_436">
<rect width="50" height="50" fill="white"/>
</clipPath>
</defs>
</svg>
