<svg width="49" height="48" viewBox="0 0 49 48" fill="none" xmlns="http://www.w3.org/2000/svg">
<g clip-path="url(#clip0_4_2)">
<path fill-rule="evenodd" clip-rule="evenodd" d="M46.326 2.98203L46.0011 2.65897C44.2767 0.944309 41.9883 0 39.5499 0C37.1115 0 34.8195 0.944309 33.0987 2.65897L19.9499 15.7337H5.72648C5.62652 15.7337 5.53013 15.7337 5.43373 15.7408C2.40627 15.8935 0 18.3821 0 21.428V42.3057C0 45.4511 2.56335 48 5.72648 48H26.7224C26.8224 48 26.9188 48 27.0152 47.9929C30.0426 47.8402 32.4489 45.3517 32.4489 42.3057V29.6073L43.0093 19.1027L46.3295 15.8083C48.0539 14.0936 49 11.8181 49 9.39339C49 6.96871 48.0503 4.69314 46.326 2.97848V2.98203ZM43.9268 13.4227L40.6102 16.7171L32.4489 24.836L25.6299 31.6166C25.3872 31.858 25.0766 32.0319 24.741 32.1171L17.1045 34.0164C16.4547 34.1797 15.7657 33.988 15.2944 33.5159C14.8196 33.0437 14.6304 32.3621 14.791 31.7124L16.7011 24.1225C16.7832 23.7888 16.9581 23.4835 17.2044 23.2385L35.5013 5.0446C37.7362 2.82228 41.3635 2.82228 43.602 5.0446L43.9268 5.36765C46.1617 7.58997 46.1617 11.1968 43.9268 13.4227Z" fill="#F9F6EE"/>
</g>
<defs>
<clipPath id="clip0_4_2">
<rect width="49" height="48" fill="white"/>
</clipPath>
</defs>
</svg>
