<svg width="65" height="62" viewBox="0 0 65 62" fill="none" xmlns="http://www.w3.org/2000/svg">
<path d="M17.9227 39.528L21.1376 41.7919C22.1263 42.4892 23.3594 42.7488 24.5463 42.5118C25.7333 42.2735 26.7702 41.5578 27.415 40.5352L30.333 35.8943L20.3828 28.8837L16.9956 33.1951C16.2482 34.1458 15.9237 35.3635 16.0973 36.5607C16.2739 37.7569 16.934 38.8319 17.9227 39.528Z" fill="white"/>
<path d="M48.7867 6.55306C49.9962 4.63099 49.488 2.10208 47.6336 0.795098L47.609 0.778722C45.7536 -0.528388 43.2002 -0.153622 41.7976 1.62994L21.5873 27.3508L31.3712 34.2433L48.7867 6.55306Z" fill="white"/>
<path d="M64.0789 54.9271C63.5697 54.9271 63.158 55.3398 63.158 55.8491C63.158 56.3583 63.5697 56.769 64.0789 56.769C64.5882 56.769 64.9999 56.3583 64.9999 55.8491C64.9999 55.3398 64.5882 54.9271 64.0789 54.9271Z" fill="white"/>
<path d="M58.0715 53.2329C58.5684 53.2329 58.9719 52.8293 58.9719 52.3314C58.9719 51.8366 58.5684 51.433 58.0715 51.433C57.5745 51.433 57.171 51.8364 57.171 52.3314C57.171 52.8293 57.5745 53.2329 58.0715 53.2329Z" fill="white"/>
<path d="M20.8829 54.2966C22.7454 51.6538 23.0349 48.1947 21.6407 45.2716L21.582 45.1485L14.6126 40.2386L14.4781 40.2252C11.2562 39.8956 8.09796 41.333 6.2353 43.9769C4.46939 46.4832 3.82764 49.2186 3.20645 51.8624C2.78332 53.6674 2.34597 55.535 1.55137 57.3277C0.895273 58.8124 0.455762 59.3422 0.452715 59.3442L0 59.8555L0.615977 60.1533C3.48677 61.5373 7.36379 61.7283 11.252 60.6809C15.3375 59.5793 18.7586 57.3111 20.8829 54.2966ZM17.2842 54.9989C17.1764 55.0709 17.0666 55.15 16.9504 55.2391C15.6733 56.2433 14.0089 55.811 15.0222 53.774C16.0335 51.7359 14.2491 51.0829 12.8003 52.4217C10.982 54.1016 10.1287 52.7606 10.4655 51.8334C10.8002 50.9062 12.0086 49.6413 10.9973 48.8241C10.3895 48.3313 9.60502 49.052 8.3525 50.0284C7.63585 50.586 5.98279 50.4052 6.65222 47.9257C7.01568 47.0026 7.46332 46.1134 8.0619 45.2634C9.3619 43.4172 11.5662 42.3329 13.8261 42.4192L19.7955 46.6226C20.6375 48.7235 20.3562 51.163 19.0563 53.009C18.5564 53.7175 17.9608 54.386 17.2842 54.9989Z" fill="white"/>
<path d="M59.8918 54.4261H43.1067C43.0779 54.3655 43.0585 54.2987 43.0585 54.2268C43.0585 54.1108 43.1057 54.0071 43.1765 53.9249H53.5271C54.2696 53.9249 54.87 53.3253 54.87 52.582C54.87 51.8405 54.2696 51.2399 53.5271 51.2399H25.1068C25.1459 53.1949 24.5842 55.1488 23.422 56.7987C21.9978 58.8204 19.9671 60.4693 17.5573 61.6275H56.1259C56.9575 61.6275 57.632 60.9529 57.632 60.1203C57.632 59.2876 56.9574 58.613 56.1259 58.613H49.0937C48.6749 58.613 48.3349 58.2743 48.3349 57.8553C48.3349 57.6971 48.3945 57.5617 48.4745 57.4406H59.8919C60.7246 57.4406 61.4003 56.7671 61.4003 55.9333C61.4001 55.1007 60.7245 54.4261 59.8918 54.4261Z" fill="white"/>
</svg>
