<svg width="87" height="87" viewBox="0 0 87 87" fill="none" xmlns="http://www.w3.org/2000/svg">
<path d="M82.9135 63.2051L63.2053 43.4969L82.9135 23.7887C88.3583 18.3439 88.3583 9.52534 82.9135 4.08055C77.4687 -1.36425 68.6501 -1.36425 63.2053 4.08055L43.4971 23.7887L23.7889 4.08055C18.3502 -1.35811 9.52547 -1.35811 4.08067 4.08055C-1.35798 9.52534 -1.35798 18.3501 4.08067 23.7887L23.7889 43.4969L4.08067 63.2051C-1.36413 68.6499 -1.36413 77.4686 4.08067 82.9133C9.52547 88.3581 18.3441 88.3581 23.7889 82.9133L43.4971 63.2051L63.2053 82.9133C68.6501 88.3581 77.4687 88.3581 82.9135 82.9133C88.3583 77.4686 88.3583 68.6499 82.9135 63.2051Z" fill="black"/>
</svg>
