<svg width="51" height="55" viewBox="0 0 51 55" fill="none" xmlns="http://www.w3.org/2000/svg">
<path d="M25.5429 12.845C20.5006 4.93947 11.6182 0 2.01203 0H0V8.523H2.01203C11.0539 8.523 18.9057 14.9516 20.7582 23.5109H1.98749V32.0339H20.5988C18.5008 40.339 10.8699 46.3438 2.01203 46.3438H0V54.8668H2.01203C11.5569 54.8668 20.3902 49.9879 25.4571 42.155C30.5117 50.0605 39.3818 55 48.988 55H51V46.477H48.988C40.0565 46.477 32.4133 40.3995 30.3644 32.0218H49.0125V23.4988H30.2663C32.1556 14.891 39.848 8.65617 48.988 8.65617H51V0.133172H48.988C39.4431 0.133172 30.6098 5.01211 25.5429 12.845Z" fill="white"/>
</svg>
